<svg width="128" height="96" viewBox="0 0 128 96" fill="none" xmlns="http://www.w3.org/2000/svg">
<path d="M32 24C32 21.7909 33.7909 20 36 20H88C90.2091 20 92 21.7909 92 24V28H32V24Z" fill="#2B55CA"/>
<path d="M32 24C32 21.7909 33.7909 20 36 20H84C86.2091 20 88 21.7909 88 24V28H32V24Z" fill="#7295F6"/>
<path d="M92 36.7331C92 38.3382 90.6905 39.6063 89.2209 40.2517C86.8806 41.2795 85.0925 43.4343 84.6493 46.1429L83.2059 54.9633C78.7536 56.0535 75.3535 58.7234 73.0481 62.7323C71.3477 65.6893 70.2955 69.2777 69.6914 73.3038C69.4626 74.8287 68.1831 76 66.6411 76H38C34.6863 76 32 73.3137 32 70V28H92V36.7331Z" fill="#AAAAAA"/>
<path d="M88 40.9233C86.273 42.0841 85.0117 43.9284 84.6493 46.1429L83.2059 54.9633C78.7536 56.0535 75.3535 58.7234 73.0481 62.7323C71.3477 65.6893 70.2955 69.2777 69.6914 73.3038C69.4626 74.8287 68.1831 76 66.6411 76H38C34.6863 76 32 73.3137 32 70V28H88V40.9233Z" fill="#E5E5E5"/>
<path fill-rule="evenodd" clip-rule="evenodd" d="M70.3153 70C70.9419 67.3001 71.8282 64.8537 73.0481 62.7323C75.1407 59.0934 78.1352 56.5578 82 55.3054V36C82 34.8954 81.1046 34 80 34H66C64.8954 34 64 34.8954 64 36V68C64 69.1046 64.8954 70 66 70H70.3153Z" fill="#CCCCCC"/>
<path fill-rule="evenodd" clip-rule="evenodd" d="M39 65C38.4477 65 38 65.4477 38 66V69C38 69.5523 38.4477 70 39 70H59C59.5523 70 60 69.5523 60 69V66C60 65.4477 59.5523 65 59 65H39ZM38 57C38 56.4477 38.4477 56 39 56H59C59.5523 56 60 56.4477 60 57V60C60 60.5523 59.5523 61 59 61H39C38.4477 61 38 60.5523 38 60V57ZM38 36C38 34.8954 38.8954 34 40 34H58C59.1046 34 60 34.8954 60 36V50C60 51.1046 59.1046 52 58 52H40C38.8954 52 38 51.1046 38 50L38 36Z" fill="#ADC2FC"/>
<path d="M88.5965 46.7891L85.7749 64.0324C85.5496 65.409 86.469 66.7122 87.8414 66.9618C89.1097 67.1924 90.3513 66.443 90.7384 65.2134L95.9852 48.5472C96.6839 46.3277 95.2459 44.0062 92.9475 43.6433C90.8788 43.3167 88.9348 44.7223 88.5965 46.7891Z" fill="#557FF3"/>
<path d="M101.234 84.0003H76.4122C74.5277 84.0003 72.9907 82.4676 73.0606 80.5843C73.5852 66.4627 77.5879 58.4082 88.0775 58.4082C95.1798 58.4082 98.592 65.2328 98.592 70.3512C98.592 74.0284 100.598 77.9178 102.708 80.82C103.607 82.0567 102.763 84.0003 101.234 84.0003Z" fill="#FFDE7A"/>
<path fill-rule="evenodd" clip-rule="evenodd" d="M97.4383 80.0003H77.0887C77.3929 73.5384 78.4785 69.0953 80.2178 66.3308C81.7958 63.8227 84.0763 62.4082 88.0775 62.4082C90.1694 62.4082 91.6767 63.3492 92.7859 64.8439C93.9748 66.446 94.592 68.5801 94.592 70.3512C94.592 73.8344 95.8816 77.2133 97.4383 80.0003ZM76.4122 84.0003H101.234C102.763 84.0003 103.607 82.0567 102.708 80.82C100.598 77.9178 98.592 74.0284 98.592 70.3512C98.592 65.2328 95.1798 58.4082 88.0775 58.4082C77.5879 58.4082 73.5852 66.4627 73.0606 80.5843C72.9907 82.4676 74.5277 84.0003 76.4122 84.0003Z" fill="#F9BE1A"/>
<path fill-rule="evenodd" clip-rule="evenodd" d="M96.5202 71.8907L78.1792 68.4784L78.9108 64.5459L97.2518 67.9582L96.5202 71.8907Z" fill="#F9BE1A"/>
<path d="M90.061 74.6162C88.7814 77.602 89.2079 81.4408 89.2079 81.4408H93.8998C93.8998 81.4408 90.4876 77.602 90.061 74.6162Z" fill="#F9BE1A"/>
<path d="M81.5307 74.6162C80.2511 77.602 80.6776 81.4408 80.6776 81.4408H85.3695C85.3695 81.4408 81.9573 77.602 81.5307 74.6162Z" fill="#F9BE1A"/>
<path d="M108.501 59C108.799 59 109.096 59.12 109.324 59.3539C109.778 59.8219 109.778 60.5837 109.324 61.0517L106.991 63.4512C106.536 63.9192 105.796 63.9192 105.341 63.4512C104.886 62.9833 104.886 62.2215 105.341 61.7535L107.673 59.3539C107.901 59.12 108.198 59 108.496 59H108.501Z" fill="#CCCCCC"/>
<path d="M107.335 69.7982H110.834C111.475 69.7982 112 70.3381 112 70.998C112 71.6579 111.475 72.1978 110.834 72.1978H107.335C106.694 72.1978 106.169 71.6579 106.169 70.998C106.169 70.3381 106.694 69.7982 107.335 69.7982Z" fill="#CCCCCC"/>
<path d="M105.353 78.5518C105.58 78.3178 105.878 78.1978 106.175 78.1978H106.181C106.478 78.1978 106.776 78.3178 107.003 78.5518L109.336 80.9513C109.79 81.4193 109.79 82.1811 109.336 82.6491C108.881 83.117 108.14 83.117 107.685 82.6491L105.353 80.2495C104.898 79.7815 104.898 79.0197 105.353 78.5518Z" fill="#CCCCCC"/>
</svg>
