<svg width="128" height="96" viewBox="0 0 128 96" fill="none" xmlns="http://www.w3.org/2000/svg">
<path fill-rule="evenodd" clip-rule="evenodd" d="M71.2581 18.461C69.6 16.6879 67.4995 15.9864 64.9998 16.0002C58.5006 15.9865 59.4253 16.9233 58.0006 18.4295C55.46 21.1158 54.959 22.566 52.7052 23.3219C50.44 24.0817 47.8379 25.5078 44 25C39.723 24.4341 34.0422 23.8067 34.0035 28.5793C33.8807 43.7111 36.9874 56.1953 41.5447 63.3477C46.592 71.2694 51.6021 75.3945 58.5006 79.0648C60.844 80.3118 66.9263 80.3118 69.2696 79.0646C76.168 75.3945 84.4115 71.2693 89.4588 63.3477C94.0162 56.1951 96.1178 46.3135 95.9949 31.181C95.9561 26.4043 92.1997 23.7783 87.1292 23.7783C86.591 23.7783 84.6692 23.6723 83.9975 23.7206C83.3919 23.7641 83.8166 24.0671 83.2682 24.0698C81.3355 24.0792 79.7367 23.8389 78.3199 23.3778C76.0617 22.6429 73.8235 21.2045 71.2581 18.461Z" fill="#288419"/>
<path fill-rule="evenodd" clip-rule="evenodd" d="M67.6623 18.474C64.6356 15.1843 59.3492 15.1769 56.3104 18.4426C53.8113 21.1282 51.6295 22.5781 49.4125 23.3339C47.1843 24.0935 44.4914 24.2976 40.7162 23.7899C36.5092 23.2242 32.0431 26.4208 32.005 31.1924C31.8842 46.3211 33.9515 56.2003 38.4343 63.3513C43.3992 71.2712 51.5082 75.3955 58.2939 79.065C60.599 80.3117 63.4013 80.3117 65.7063 79.0648C72.492 75.3954 80.6009 71.2711 85.5657 63.3513C90.0486 56.2002 92.1159 46.3206 91.995 31.1914C91.9568 26.4156 87.4839 23.2188 83.2742 23.7902C79.5214 24.2996 76.8364 24.1266 74.6087 23.3898C72.3874 22.655 70.1858 21.2169 67.6623 18.474Z" fill="#4CBA3C"/>
<path fill-rule="evenodd" clip-rule="evenodd" d="M67.6623 18.474C64.6356 15.1843 59.3492 15.1769 56.3104 18.4426C53.8113 21.1282 51.6295 22.5781 49.4125 23.3339C47.1843 24.0935 44.4914 24.2976 40.7162 23.7899C36.5091 23.2242 32.0431 26.4208 32.005 31.1924C31.8842 46.3211 33.9515 56.2003 38.4343 63.3513C43.3992 71.2712 51.5082 75.3955 58.2939 79.065C60.599 80.3117 63.4013 80.3117 65.7063 79.0648C72.492 75.3954 80.6009 71.2711 85.5657 63.3513C90.0486 56.2002 92.1159 46.3206 91.995 31.1914C91.9568 26.4156 87.4839 23.2188 83.2742 23.7902C79.5214 24.2996 76.8364 24.1266 74.6087 23.3898C72.3874 22.655 70.1858 21.2169 67.6623 18.474Z" fill="#63C853"/>
<path fill-rule="evenodd" clip-rule="evenodd" d="M60.6727 74.667L60.6723 74.6668C60.479 74.5623 60.2858 74.458 60.093 74.3538C53.2378 70.6501 46.6951 67.1152 42.6707 60.6955C38.9392 54.743 36.8868 46.0089 37.0048 31.2324C37.0107 30.4933 37.3338 29.8661 37.931 29.3857C38.5778 28.8655 39.3883 28.6563 40.0499 28.7453C44.301 29.317 47.8305 29.1558 51.0258 28.0665C54.2343 26.9727 57.0829 24.9521 59.9707 21.8487C61.0278 20.7128 62.9324 20.7178 63.9827 21.8594C66.9141 25.0455 69.8029 27.0666 73.0386 28.1368C76.2352 29.1942 79.7492 29.3145 83.9467 28.7448C84.6086 28.6549 85.4201 28.8635 86.0677 29.3837C86.6657 29.8641 86.9892 30.4916 86.9952 31.2313C87.1132 46.0085 85.0609 54.7429 81.3293 60.6955C77.3047 67.1155 70.7616 70.6505 63.9062 74.3542C63.7137 74.4582 63.521 74.5623 63.328 74.6666L63.3274 74.667C62.5066 75.111 61.4935 75.111 60.6727 74.667ZM65.7063 79.0648C63.4013 80.3117 60.599 80.3117 58.2939 79.065C57.9888 78.8999 57.681 78.734 57.3709 78.5669C50.7852 75.0169 43.1759 70.9151 38.4343 63.3513C33.9515 56.2003 31.8842 46.3211 32.005 31.1924C32.0431 26.4208 36.5091 23.2242 40.7162 23.7899C44.4914 24.2976 47.1843 24.0935 49.4125 23.3339C51.6295 22.5781 53.8113 21.1282 56.3104 18.4426C59.3492 15.1769 64.6356 15.1843 67.6623 18.474C70.1858 21.2169 72.3874 22.655 74.6087 23.3898C76.8364 24.1266 79.5214 24.2996 83.2742 23.7902C87.4839 23.2188 91.9568 26.4156 91.995 31.1914C92.1159 46.3206 90.0486 56.2002 85.5657 63.3513C80.8239 70.9153 73.2143 75.0172 66.6285 78.5672C66.3187 78.7342 66.0112 78.8999 65.7063 79.0648Z" fill="#399F29"/>
<path d="M58.2939 79.0649C59.4844 79.7089 60.8075 80.0202 62.1263 79.999C61.7704 76.6237 61.2318 70.6953 60.8786 62.9995C52.0978 62.9344 44.9998 55.7961 44.9998 47C44.9998 38.1728 52.1481 31.0152 60.9717 31C61.5329 21.3339 62.4275 16.3394 62.4867 16.0167C62.3154 16.0056 62.1439 16 61.9724 16C59.8988 16 57.8253 16.8146 56.3103 18.4426C53.8112 21.1282 51.6294 22.5781 49.4125 23.3339C47.1842 24.0935 44.4914 24.2976 40.7162 23.7899C36.5091 23.2242 32.0431 26.4208 32.005 31.1924C31.8842 46.3211 33.9515 56.2003 38.4343 63.3513C43.1759 70.9151 50.7852 75.0169 57.3708 78.5668L57.3726 78.5678C57.6821 78.7346 57.9893 78.9003 58.2939 79.0649Z" fill="#7BD66D"/>
<path fill-rule="evenodd" clip-rule="evenodd" d="M62.2141 79.9971C60.8664 80.0339 59.5109 79.7232 58.294 79.065C57.9889 78.8999 57.6811 78.734 57.371 78.5669C50.7854 75.0169 43.1761 70.9151 38.4344 63.3513C33.9516 56.2003 31.8843 46.3211 32.0051 31.1924C32.0432 26.4208 36.5093 23.2242 40.7164 23.7899C44.4915 24.2976 47.1844 24.0935 49.4126 23.3339C51.6296 22.5781 53.8114 21.1282 56.3105 18.4426C57.8254 16.8146 59.8989 16 61.9725 16C62.1443 16 62.3161 16.0056 62.4875 16.0168C62.4624 16.1987 62.2372 17.8606 61.9693 21C61.2331 21.0006 60.497 21.2833 59.9708 21.8487C57.083 24.9521 54.2345 26.9727 51.0259 28.0665C47.8306 29.1558 44.3012 29.317 40.05 28.7453C39.3884 28.6563 38.5779 28.8655 37.9312 29.3857C37.3339 29.8661 37.0109 30.4933 37.005 31.2324C36.887 46.0089 38.9393 54.743 42.6708 60.6955C46.6952 67.1152 53.2379 70.6501 60.093 74.3537L60.093 74.3537L60.6724 74.6668L60.6728 74.667C61.0402 74.8658 61.4461 74.9755 61.8561 74.9963C61.9854 77.0131 62.11 78.695 62.2141 79.9971Z" fill="#4CBA3C"/>
<path d="M62 61C69.732 61 76 54.732 76 47C76 39.268 69.732 33 62 33C54.268 33 48 39.268 48 47C48 54.732 54.268 61 62 61Z" fill="#D3FFCC"/>
<path d="M70.8852 44.3097C71.4056 43.7893 71.4056 42.9454 70.8852 42.4249L69.0262 40.566C68.5057 40.0455 67.6619 40.0455 67.1414 40.566L60.6026 47.1047C60.0822 47.6252 59.2383 47.6252 58.7179 47.1047L56.8587 45.2456C56.3382 44.7252 55.4944 44.7252 54.9739 45.2457L53.1149 47.1047C52.5944 47.6251 52.5944 48.469 53.1149 48.9895L58.7179 54.5923C59.2383 55.1127 60.0822 55.1127 60.6026 54.5922L70.8852 44.3097Z" fill="#4CBA3C"/>
</svg>
