<svg width="128" height="96" viewBox="0 0 128 96" fill="none" xmlns="http://www.w3.org/2000/svg">
<path opacity="0.1" d="M67 70.9598C52.5097 70.1809 41 58.1846 41 43.5C41 28.3122 53.3122 16 68.5 16C83.6878 16 96 28.3122 96 43.5C96 46.1001 95.6392 48.6158 94.9648 51H87C75.9677 51 67.0217 59.9326 67 70.9598Z" fill="#3969EF"/>
<path opacity="0.9" fill-rule="evenodd" clip-rule="evenodd" d="M52.4185 42.5983C55.9781 37.4604 61.9159 34.0953 68.6396 34.0953C75.3642 34.0953 81.3025 37.4612 84.862 42.6C84.4574 33.9909 77.3494 27.1353 68.6402 27.1353C59.9316 27.1353 52.824 33.99 52.4185 42.5983Z" fill="white"/>
<path fill-rule="evenodd" clip-rule="evenodd" d="M68.5 22C80.3741 22 90 31.6259 90 43.5C90 46.1379 89.5249 48.6649 88.6557 51H94.9648C95.6392 48.6158 96 46.1001 96 43.5C96 28.3122 83.6878 16 68.5 16C53.3122 16 41 28.3122 41 43.5C41 50.0132 43.2643 55.9975 47.0486 60.7088L32.8787 74.8787C31.7071 76.0503 31.7071 77.9497 32.8787 79.1213C34.0503 80.2929 35.9497 80.2929 37.1213 79.1213L51.2912 64.9514C55.6385 68.4433 61.0696 70.641 67 70.9598C67.0041 68.8809 67.3254 66.8765 67.918 64.9923C56.3129 64.6839 47 55.1795 47 43.5C47 31.6259 56.6259 22 68.5 22Z" fill="#AAAAAA"/>
<path d="M87 87C95.8366 87 103 79.8366 103 71C103 62.1634 95.8366 55 87 55C78.1634 55 71 62.1634 71 71C71 79.8366 78.1634 87 87 87Z" fill="#21C000"/>
<path fill-rule="evenodd" clip-rule="evenodd" d="M92.5 70V66.0487C92.5 64.5829 91.9249 63.1736 90.8955 62.1316C89.8655 61.0891 88.4646 60.5 87 60.5C85.5354 60.5 84.1345 61.0891 83.1045 62.1316C82.0751 63.1736 81.5 64.5829 81.5 66.0487V70H81C79.8954 70 79 70.8954 79 72V78C79 79.1046 79.8954 80 81 80H93C94.1046 80 95 79.1046 95 78V72C95 70.8954 94.1046 70 93 70H92.5ZM88.7614 64.2401C88.2911 63.7641 87.6571 63.5 87 63.5C86.3429 63.5 85.7089 63.7641 85.2386 64.2401C84.7677 64.7167 84.5 65.3669 84.5 66.0487V70H89.5V66.0487C89.5 65.3669 89.2323 64.7167 88.7614 64.2401Z" fill="white"/>
<path d="M108.501 59C108.799 59 109.096 59.12 109.324 59.3539C109.778 59.8219 109.778 60.5837 109.324 61.0517L106.991 63.4512C106.536 63.9192 105.796 63.9192 105.341 63.4512C104.886 62.9833 104.886 62.2215 105.341 61.7535L107.673 59.3539C107.901 59.12 108.198 59 108.496 59H108.501Z" fill="#CCCCCC"/>
<path d="M107.335 69.7982H110.834C111.475 69.7982 112 70.3381 112 70.998C112 71.6579 111.475 72.1978 110.834 72.1978H107.335C106.694 72.1978 106.169 71.6579 106.169 70.998C106.169 70.3381 106.694 69.7982 107.335 69.7982Z" fill="#CCCCCC"/>
<path d="M105.353 78.5518C105.58 78.3178 105.878 78.1978 106.175 78.1978H106.181C106.478 78.1978 106.776 78.3178 107.003 78.5518L109.336 80.9513C109.79 81.4193 109.79 82.1811 109.336 82.6491C108.881 83.117 108.14 83.117 107.685 82.6491L105.353 80.2495C104.898 79.7815 104.898 79.0197 105.353 78.5518Z" fill="#CCCCCC"/>
</svg>
