<svg width="24" height="24" viewBox="0 0 24 24" fill="none" xmlns="http://www.w3.org/2000/svg">
<path d="M1.88567 9.6L6.51427 8.4C7.37141 8.22857 8.22861 7.37143 8.40004 6.51429L9.59996 1.88571C9.94282 0.685712 10.9714 0 12 0C13.2 0 14.2286 0.85714 14.4 1.88571L15.6 6.51429C15.7714 7.37143 16.6286 8.22857 17.4857 8.4L22.1143 9.6C23.3143 9.94285 24 10.9714 24 12C24 13.2 23.1429 14.2286 22.1143 14.4L17.4857 15.6C16.6286 15.7714 15.7714 16.6286 15.6 17.4857L14.4 22.1143C14.0572 23.3143 13.0286 24 12 24C10.8 24 9.77139 23.1429 9.59996 22.1143L8.40004 17.4857C8.22861 16.6286 7.37141 15.7714 6.51427 15.6L1.88567 14.4C0.685672 14.0571 0 13.0286 0 12C0 10.8 0.8571 9.77143 1.88567 9.6Z" fill="#888888"/>
</svg>
